# xmcd
#
# Track frame offsets: 
#        150
#        24644
#        39038
#        59513
#        77915
#        103057
#        115940
#        147239
#        164938
#
# Disc length: 2975 seconds
#
# Revision: 0
# Processed by: cddbd v1.5.2PL0 Copyright (c) Steve Scherf et al.
# Submitted via: ExactAudioCopyFreeDBPlugin 1.0
#
DISCID=7b0b9d09
DTITLE=Harry Belafonte - Belafonte at Carnegie Hall (The Complete Conc
DTITLE=ert) CD2
DYEAR=1900
DGENRE=Classic Rock
TTITLE0=Mama Look a Boo Boo
TTITLE1=Come Back Liza
TTITLE2=Man Smart (Woman Smarter)
TTITLE3=Hava Nageela
TTITLE4=Danny Boy
TTITLE5=Merci Bon Dieu
TTITLE6=Cu cu Ru Cu Cu Paloma
TTITLE7=Shenandoah
TTITLE8=Matilda
EXTD=
EXTT0=
EXTT1=
EXTT2=
EXTT3=
EXTT4=
EXTT5=
EXTT6=
EXTT7=
EXTT8=
PLAYORDER=
